<svg xmlns="http://www.w3.org/2000/svg" xmlns:xlink="http://www.w3.org/1999/xlink" viewBox="0 0 317.79 69.31"><defs><style>.cls-1{fill:none;}.cls-2{fill:#39aa9e;}.cls-3{isolation:isolate;}.cls-4{clip-path:url(#clip-path);}.cls-5{font-size:19.65px;font-family:GothamRounded-Book, Gotham Rounded;letter-spacing:0.04em;}.cls-5,.cls-9{fill:#1e6491;}.cls-6{letter-spacing:0.04em;}.cls-7{letter-spacing:0.03em;}.cls-8{letter-spacing:0em;}.cls-10{fill:url(#Degradado_sin_nombre_11);}</style><clipPath id="clip-path"><rect class="cls-1" x="135.54" y="25.17" width="107.47" height="21.47"/></clipPath><linearGradient id="Degradado_sin_nombre_11" x1="308.01" y1="-1.57" x2="284.01" y2="42.43" gradientUnits="userSpaceOnUse"><stop offset="0" stop-color="#39aa9e"/><stop offset="1" stop-color="#1e6491"/></linearGradient></defs><title>Recurso 1</title><g id="Capa_2" data-name="Capa 2"><g id="Capa_1-2" data-name="Capa 1"><path class="cls-2" d="M42.29,1.76A1.69,1.69,0,0,1,43.9,0H44a1.74,1.74,0,0,1,1.76,1.72V50.14a1.64,1.64,0,0,1-1.53,1.75h-.16a1.7,1.7,0,0,1-1.76-1.64V1.76Z"/><path class="cls-2" d="M53.74,19.13a1.68,1.68,0,1,1,3.35-.08V50.18a1.59,1.59,0,0,1-1.48,1.71h-.16a1.65,1.65,0,0,1-1.71-1.59V19.13Zm3.52-7.78a1.84,1.84,0,1,1-1.84-1.84,1.84,1.84,0,0,1,1.84,1.84"/><path class="cls-2" d="M32.72,17.42A1.68,1.68,0,0,0,31,19.1v5.21A17.24,17.24,0,1,0,31,45V67.55a1.7,1.7,0,0,0,1.64,1.76h.12a1.64,1.64,0,0,0,1.69-1.59V19.18a1.74,1.74,0,0,0-1.73-1.76h0M17.24,48.12A13.47,13.47,0,1,1,30.7,34.66,13.46,13.46,0,0,1,17.24,48.12"/><path class="cls-2" d="M82.35,17.42a17.19,17.19,0,0,0-13.79,6.89V19.18a1.74,1.74,0,0,0-1.73-1.76h0a1.68,1.68,0,0,0-1.69,1.68V67.56a1.7,1.7,0,0,0,1.64,1.75h.12a1.64,1.64,0,0,0,1.69-1.59V45A17.24,17.24,0,1,0,82.35,17.42M82,48.12A13.47,13.47,0,1,1,95.49,34.66,13.46,13.46,0,0,1,82,48.12"/><g class="cls-3"><g class="cls-4"><g class="cls-3"><g class="cls-4"><text class="cls-5" transform="translate(135.54 41.86)">BU<tspan class="cls-6" x="30.71" y="0">S</tspan><tspan x="44.07" y="0">IN</tspan><tspan class="cls-6" x="66.92" y="0">E</tspan><tspan class="cls-7" x="80.86" y="0">S</tspan><tspan class="cls-8" x="94.03" y="0">S</tspan></text></g></g></g></g><path class="cls-9" d="M115.29,31.23a4,4,0,1,1-4,4,4,4,0,0,1,4-4"/><path class="cls-10" d="M305.43,25.93h-.35a12.8,12.8,0,0,0,.37-3.05,12.09,12.09,0,0,0-11.64-12.32v0l-18.43.08a13.53,13.53,0,0,0-13.46,13.57L262,52.62l9.33,0,0-17.34h33.76a3.74,3.74,0,0,1,3.41,4,3.74,3.74,0,0,1-3.41,4v0H280.58v9.34H305.1v-.06c7,0,12.69-6,12.69-13.32A13.08,13.08,0,0,0,305.43,25.93Zm-11.79-.07v.06H271.26V25a5,5,0,0,1,5-5l17.39-.09v0a2.78,2.78,0,0,1,2.48,3A2.77,2.77,0,0,1,293.64,25.86Z"/></g></g></svg>