<svg xmlns="http://www.w3.org/2000/svg" xmlns:xlink="http://www.w3.org/1999/xlink" viewBox="0 0 30.48 22.97"><defs><style>.cls-1{fill:url(#Degradado_sin_nombre_11);}</style><linearGradient id="Degradado_sin_nombre_11" x1="25.14" y1="-6.59" x2="12.05" y2="17.41" gradientUnits="userSpaceOnUse"><stop offset="0" stop-color="#39aa9e"/><stop offset="1" stop-color="#1e6491"/></linearGradient></defs><title>Recurso 3busines mentum</title><g id="Capa_2" data-name="Capa 2"><g id="Capa_1-2" data-name="Capa 1"><path class="cls-1" d="M23.74,8.41h-.19a7,7,0,0,0,.2-1.66A6.59,6.59,0,0,0,17.4,0V0L7.34.05A7.38,7.38,0,0,0,0,7.45L.05,23l5.09,0,0-9.46H23.53a2,2,0,0,1,1.86,2.18,2,2,0,0,1-1.86,2.18v0H10.18V23H23.55v0a7.13,7.13,0,0,0,6.93-7.27A7.13,7.13,0,0,0,23.74,8.41Zm-6.43,0v0H5.09V7.89A2.75,2.75,0,0,1,7.81,5.14l9.5,0h0a1.52,1.52,0,0,1,1.35,1.64A1.51,1.51,0,0,1,17.31,8.37Z"/></g></g></svg>