<svg xmlns="http://www.w3.org/2000/svg" width="18.811" height="14.978" viewBox="0 0 18.811 14.978"><defs><style>.a{fill:#707070;}</style></defs><path class="a" d="M18.65,56.224l-3.9-3.9a.551.551,0,0,0-.779,0l-1.443,1.438a3.6,3.6,0,0,0-3.295.652l-2.924-.562L4.838,52.38a.551.551,0,0,0-.779,0l-3.9,3.9a.551.551,0,0,0,0,.779A7.78,7.78,0,0,1,2.17,60.533a8.856,8.856,0,0,0,2.822,4.528l1.7,1.434a2.753,2.753,0,0,0,3.287.2l3.893-2.552A1.652,1.652,0,0,0,14.6,62.5a8.155,8.155,0,0,0,2.5-3.956L18.649,57a.551.551,0,0,0,0-.78Zm-5.383,7L9.375,65.771A1.663,1.663,0,0,1,7.4,65.652L5.7,64.219a7.728,7.728,0,0,1-2.467-3.964,8.882,8.882,0,0,0-1.918-3.576l3.13-3.13,1.206,1.206a.551.551,0,0,0,.286.152l2.341.45L5.158,58.478a.551.551,0,0,0,0,.779,2.758,2.758,0,0,0,3.9,0l.566-.566c.338.207-.381-.393,3.735,3.677a.551.551,0,0,1-.088.85Zm2.951-5.349a.551.551,0,0,0-.144.251,7.06,7.06,0,0,1-2.02,3.388l-2.469-2.469A2.749,2.749,0,0,0,13,58.285a.551.551,0,1,0-.779-.779,1.65,1.65,0,0,1-1.879.325l-.013-.006a1.656,1.656,0,0,1-.39-.266.551.551,0,0,0-.761.017l-.9.9a1.656,1.656,0,0,1-1.881.323l3.4-3.4a2.33,2.33,0,0,1,2.127-.636l.678.14a.551.551,0,0,0,.5-.149L14.363,53.5l3.117,3.117Z" transform="translate(0 -52.166)"/></svg>