<svg xmlns="http://www.w3.org/2000/svg" width="27.572" height="27.509" viewBox="0 0 27.572 27.509">
  <g id="configuracion" transform="translate(0.533 0.5)">
    <g id="Capa_2" data-name="Capa 2" transform="translate(0 0)">
      <g id="Capa_1" data-name="Capa 1">
        <g id="configuración">
          <path id="Trazado_867" data-name="Trazado 867" d="M13.415,17.764a4.379,4.379,0,1,0-3.115-1.28,4.393,4.393,0,0,0,3.115,1.28M9.248,0a.975.975,0,0,0-.4.078L7.32.706a1.024,1.024,0,0,0-.657,1.067l.275,3.242A9.945,9.945,0,0,0,5.13,6.738L1.916,6.4a.353.353,0,0,0-.12,0,1.059,1.059,0,0,0-.975.664L.179,8.539A1.045,1.045,0,0,0,.461,9.768l2.43,2.055a10.008,10.008,0,0,0-.071,2.6L.391,16.393a1.067,1.067,0,0,0-.318,1.264L.7,19.148a1.1,1.1,0,0,0,1,.671h.085l3.094-.254a10.6,10.6,0,0,0,1.879,1.928l-.332,3.072a1.038,1.038,0,0,0,.636,1.088l1.5.65a1.109,1.109,0,0,0,.424.085,1.067,1.067,0,0,0,.819-.374L11.8,23.64a9.464,9.464,0,0,0,1.413.106,9.613,9.613,0,0,0,1.271-.085l1.949,2.43a1.081,1.081,0,0,0,1.229.318l1.512-.614a1.059,1.059,0,0,0,.65-1.074l-.261-3.143a10.235,10.235,0,0,0,1.836-1.8l3.171.339h.148a1.052,1.052,0,0,0,.975-.643l.65-1.5a1.081,1.081,0,0,0-.29-1.229l-2.493-2.119a10.157,10.157,0,0,0,0-2.493l2.55-2.041a1.088,1.088,0,0,0,.318-1.229l-.614-1.526a1.045,1.045,0,0,0-.982-.671.177.177,0,0,0-.085,0l-3.306.275a10.531,10.531,0,0,0-1.688-1.723L20.1,1.921A1.067,1.067,0,0,0,19.468.826L17.929.184A.826.826,0,0,0,17.519.1a1.01,1.01,0,0,0-.812.381L14.588,3a10.7,10.7,0,0,0-1.342-.085,9.034,9.034,0,0,0-1.074.064L10.074.388A1.059,1.059,0,0,0,9.248,0Z" transform="translate(0.016 0)" fill="#1e6491" stroke="#1e6491" stroke-width="1" fill-rule="evenodd"/>
        </g>
      </g>
    </g>
  </g>
</svg>
