<svg xmlns="http://www.w3.org/2000/svg" viewBox="0 0 19.86 24.91"><defs><style>.cls-1{fill:#1e6491;}</style></defs><g id="Capa_2" data-name="Capa 2"><g id="notification"><path id="notification_important-24px" data-name="notification important-24px" class="cls-1" d="M9.93,24.91a2.3,2.3,0,0,0,2.3-2.3H7.63A2.3,2.3,0,0,0,9.93,24.91Zm9.59-5.45L18,18V11a8.08,8.08,0,0,0-6.36-7.9V1.78A1.73,1.73,0,0,0,10,0,1.75,1.75,0,0,0,8.19,1.69V3.13A8.09,8.09,0,0,0,1.83,11V18L.34,19.46a1.16,1.16,0,0,0,.81,2H18.7a1.16,1.16,0,0,0,.82-2Zm-8.43-2.65H8.77V14.5h2.32Zm0-5.78a1.16,1.16,0,1,1-2.32,0V8.72a1.16,1.16,0,1,1,2.32,0Z"/></g></g></svg>