<svg xmlns="http://www.w3.org/2000/svg" width="11.046" height="25" viewBox="0 0 11.046 25">
  <g id="Grupo_541" data-name="Grupo 541" transform="translate(1188 -12913)">
    <rect id="Rectángulo_235" data-name="Rectángulo 235" width="11" height="25" transform="translate(-1188 12913)" fill="#fff"/>
    <g id="Grupo_538" data-name="Grupo 538">
      <g id="info" transform="translate(-1219.139 12913)">
        <path id="Trazado_401" data-name="Trazado 401" d="M41.854,22.3,41.5,23.73q-1.572.62-2.508.945A6.616,6.616,0,0,1,36.821,25a4.342,4.342,0,0,1-2.959-.928,3,3,0,0,1-1.056-2.358,8.34,8.34,0,0,1,.079-1.135q.08-.58.255-1.31l1.31-4.635q.175-.666.295-1.262a5.485,5.485,0,0,0,.119-1.086,1.68,1.68,0,0,0-.367-1.239,2.07,2.07,0,0,0-1.4-.35,3.671,3.671,0,0,0-1.041.159c-.356.105-.661.207-.916.3l.35-1.429q1.287-.524,2.462-.9a7.365,7.365,0,0,1,2.227-.374,4.236,4.236,0,0,1,2.915.913,3.031,3.031,0,0,1,1.024,2.373c0,.2-.022.556-.071,1.064a7.114,7.114,0,0,1-.262,1.4l-1.3,4.617a12.263,12.263,0,0,0-.287,1.272,6.546,6.546,0,0,0-.127,1.079,1.555,1.555,0,0,0,.411,1.254,2.319,2.319,0,0,0,1.427.333,4.119,4.119,0,0,0,1.079-.167A6.032,6.032,0,0,0,41.854,22.3ZM42.185,2.92a2.7,2.7,0,0,1-.912,2.056,3.106,3.106,0,0,1-2.2.851,3.14,3.14,0,0,1-2.208-.851,2.7,2.7,0,0,1-.921-2.056A2.722,2.722,0,0,1,36.868.857a3.259,3.259,0,0,1,4.4,0A2.728,2.728,0,0,1,42.185,2.92Z" fill="#1e6491"/>
      </g>
    </g>
  </g>
</svg>
