<svg xmlns="http://www.w3.org/2000/svg" width="29.238" height="30.688" viewBox="0 0 29.238 30.688"><defs><style>.a{fill:rgba(96,104,118,0.34);}</style></defs><g transform="translate(0)"><g transform="translate(0 0)"><path class="a" d="M29.2,10.562a.47.47,0,0,0-.34-.345l-5-1.641V3.336a.566.566,0,0,0-.221-.447.5.5,0,0,0-.5-.079l-5,1.624L15.056.183a.566.566,0,0,0-.911,0l-3.056,4.25-5-1.624a.492.492,0,0,0-.492.068.566.566,0,0,0-.226.447v5.24l-5,1.652a.475.475,0,0,0-.345.345.526.526,0,0,0,.074.492L3.177,15.3.1,19.549a.515.515,0,0,0-.074.492.475.475,0,0,0,.345.345l5,1.664v5.24a.566.566,0,0,0,.226.447.492.492,0,0,0,.492.068l5-1.613,3.056,4.227a.563.563,0,0,0,.894,0l3.079-4.25,5,1.613a.5.5,0,0,0,.5-.068.566.566,0,0,0,.221-.447V22.051l5.025-1.664a.47.47,0,0,0,.34-.345.532.532,0,0,0-.068-.492l-3.1-4.25,3.079-4.244A.566.566,0,0,0,29.2,10.562ZM23.7,19.13a9.86,9.86,0,0,1-12.909,5.252A9.85,9.85,0,0,1,5.532,11.474,9.848,9.848,0,0,1,18.44,6.2,9.768,9.768,0,0,1,23.7,11.457a9.621,9.621,0,0,1,.775,3.826A9.74,9.74,0,0,1,23.7,19.13Z" transform="translate(0.007 0.047)"/><path class="a" d="M18.856,12.34a7.776,7.776,0,1,1-7.776,7.776,7.776,7.776,0,0,1,7.776-7.776Z" transform="translate(-4.233 -4.754)"/></g></g></svg>