<svg xmlns="http://www.w3.org/2000/svg" viewBox="0 0 23.13 23.13"><defs><style>.cls-1{fill:#1e6491;}</style></defs><g id="Capa_2" data-name="Capa 2"><g id="Grupo_432" data-name="Grupo 432"><g id="chat"><path id="Trazado_359" data-name="Trazado 359" class="cls-1" d="M20.82,0H2.31A2.32,2.32,0,0,0,0,2.31V23.13L4.63,18.5H20.82a2.32,2.32,0,0,0,2.31-2.31V2.31A2.32,2.32,0,0,0,20.82,0Zm-15,8.1H17.35a1.16,1.16,0,0,1,0,2.31H5.78a1.16,1.16,0,0,1,0-2.31Zm6.94,5.78H5.78a1.16,1.16,0,0,1,0-2.31h6.94a1.16,1.16,0,1,1,0,2.31Zm4.63-6.94H5.78a1.16,1.16,0,0,1,0-2.31H17.35a1.16,1.16,0,0,1,0,2.31Z"/></g></g></g></svg>